<svg width="144" height="51" viewBox="0 0 144 51" fill="none" xmlns="http://www.w3.org/2000/svg">
<path d="M50.3986 24.24V24.68V24.24ZM62.5586 14.2C62.5586 8.76 57.8386 3.2 51.9986 3.2C48.8786 3.2 46.0786 4.4 44.3986 7.2L46.9986 8.84L48.6786 8.68L48.6386 8.76H48.6786C48.6786 12.32 48.5586 17.88 48.8386 21.4C48.7186 21.84 48.2786 22.52 48.4386 22.52C50.8786 23.44 50.9986 23.72 53.8786 23.88C59.3186 23.44 62.5586 19.64 62.5586 14.2ZM58.2386 14.48C58.2386 19.36 53.4786 20.2 52.7986 20.2L52.9186 7.76V7.56C56.1186 8.32 58.2386 11.36 58.2386 14.48ZM73.2924 15.92C82.6924 11.2 77.8524 3.24 70.1324 3.24C67.9724 3.24 65.6124 3.84 63.2524 5.32C63.6924 6.4 64.0124 7.76 65.1324 8.24L65.6124 9.4L65.9724 23.56L66.8524 23.92L69.4124 23.72L69.4924 23.68L69.6124 22.72L69.9724 18.44C70.5724 18.44 75.0924 24 77.5324 24C77.5724 24 77.6524 24 77.6924 24L77.9324 23.48L79.0924 22.44L79.3724 21.32L73.2924 15.92ZM69.6124 11L69.4524 6.88L70.9324 6.8C72.7324 6.8 74.6524 7.32 74.6524 9.44C74.6524 11 71.5324 12.4 70.0524 12.4C69.8524 12.4 69.6924 12.36 69.5724 12.28L69.6124 11ZM84.9536 13.64C84.9536 11.32 84.4736 10.2 85.0736 7.24L85.1136 7.04L84.7136 4V4.08L84.6336 4.12L82.0336 3.56L81.6336 3.68L80.5136 5.08L80.7136 12.8C80.7136 15.16 80.8736 17.56 80.9536 19.92C80.9936 20.32 80.9936 20.72 80.9536 21.12L81.1936 23.44L82.9136 24.96L84.3536 25.04L84.9536 18.96V13.64ZM101.06 4.16L100.9 4.4L95.7005 14.96L94.5005 10.52C93.7005 7.72 91.8605 4.88 89.8205 3.48L87.1805 6.24L87.2605 6.92C87.7405 7.52 88.2605 8.12 88.6205 8.76C90.4605 11.84 92.8205 18.16 92.1405 21.64L92.1805 22.04L94.7005 24L96.1005 24.12L97.0205 23.12C99.5405 17.6 101.22 12.72 103.3 7.6L103.94 6.08L103.1 4.28L101.06 4.16Z" fill="white"/>
<path d="M67.8053 46.1232L61.5653 28.0432L57.8853 29.2832C55.8453 36.3632 53.1253 40.4432 51.3653 47.5232L52.4453 48.6032L54.3653 48.3232L55.1253 48.0432L56.8053 44.3632C56.9253 44.2032 57.0453 43.6832 57.3253 43.6832L62.0853 43.0032L62.2053 43.0432C63.0453 45.0032 63.7253 46.3232 64.4853 47.6832L65.0053 48.2832L67.1253 49.0032L67.8053 46.1232ZM60.6053 39.6032C60.5653 39.6032 60.4853 39.6032 60.4453 39.6032C60.0053 39.6032 59.5253 39.7632 59.1653 39.7632C58.5253 39.7632 58.2453 39.3232 59.3653 37.0432L60.0453 36.4832L61.0053 39.7632C61.0053 39.7632 60.6053 39.4832 60.6053 39.6032ZM81.965 32.4832L83.005 30.0832C83.005 29.4432 82.805 28.4432 81.405 28.2432C80.885 28.1632 80.285 28.1632 79.765 28.1632C78.765 28.1632 77.765 28.4432 76.805 28.7232C71.965 30.3232 68.565 34.5632 68.565 39.5632C68.565 43.0832 70.325 46.4432 73.405 48.1632C74.565 48.7232 75.365 48.8832 76.245 49.0432L78.805 48.5232L78.845 46.2032C69.165 43.5632 73.245 33.1632 78.685 32.7232L81.965 32.4832ZM102.416 31.6832L101.736 30.0032L101.176 29.7232C98.0963 29.8032 94.9763 29.8032 91.8963 29.8032L90.8163 29.6832L86.4163 28.2432L86.0963 28.2032L86.1363 28.2432C85.9363 28.4032 85.7763 28.6032 85.6163 28.8032L84.6563 29.7632L84.8963 32.2832C86.6163 33.0032 88.7363 33.4432 90.5763 33.8032C91.2563 37.7232 91.0163 44.3632 90.5763 48.4432L91.1763 48.3632L91.8563 48.3232L94.4163 48.6432L94.4963 48.6032L95.0563 34.2832H95.4163C97.3363 34.2432 101.256 33.6032 102.376 31.8832L102.416 31.6832ZM108.043 38.6432C108.043 36.3232 107.563 35.2032 108.163 32.2432L108.203 32.0432L107.803 29.0032V29.0832L107.723 29.1232L105.123 28.5632L104.723 28.6832L103.603 30.0832L103.803 37.8032C103.803 40.1632 103.963 42.5632 104.043 44.9232C104.083 45.3232 104.083 45.7232 104.043 46.1232L104.283 48.4432L106.003 49.9632L107.443 50.0432L108.043 43.9632V38.6432ZM118.07 32.0432C118.15 32.0032 118.75 31.7232 118.67 31.7232C118.67 31.7232 118.63 31.7232 118.55 31.7632L118.71 30.0832L118.67 29.6832C118.63 29.4832 118.59 29.2032 118.47 29.0432L118.19 28.8032L116.71 28.4832L114.67 29.2432C111.39 31.8432 109.91 36.4432 109.91 40.5232C109.91 44.5232 112.07 48.8832 116.91 48.8832C122.83 48.8832 125.23 44.4032 125.23 39.3632C125.23 36.4432 123.83 31.1632 120.67 31.1632C119.95 31.1632 119.11 31.4432 118.15 32.1232H117.91L118.07 32.0432ZM115.23 44.2432C112.39 42.0032 115.15 33.4832 117.91 32.1232H117.95C118.07 32.2032 116.79 33.6832 119.27 35.0432L119.51 35.2432L120.31 35.4032L120.75 35.7632C122.15 38.7632 120.31 44.8832 117.11 44.8832C116.51 44.8832 115.91 44.6832 115.23 44.2432ZM139.858 28.2432L137.738 28.5232L137.698 28.5632C137.458 32.2832 137.338 36.8032 136.778 40.1632C136.738 40.3232 136.578 40.6432 136.338 40.5632L135.938 40.3232C134.818 39.4432 131.538 29.6832 131.018 28.1632V28.0432L130.858 27.6032V27.6832C130.378 27.4832 129.298 27.3232 128.778 27.2432L126.658 28.6832C127.178 34.4032 127.178 40.2032 127.098 45.9632L127.338 48.2432L128.258 48.6032L130.418 49.2032L130.978 47.4032L131.058 45.3232V45.5632L131.338 40.4432C132.578 43.0032 134.378 46.4432 137.018 46.4432C142.538 46.4432 141.378 32.1632 141.178 28.5632L139.858 28.2432Z" fill="white"/>
<path d="M107.832 21.2261L116.043 23.9227L116.147 24.0032C118.121 22.9567 129.45 22.4738 135.478 22.4738C136.829 22.4738 137.868 22.514 138.492 22.5543L144 20.7432L143.793 20.4212L139.947 18.7308C136.725 18.6101 133.295 18.5296 129.762 18.5296C122.071 18.5296 114.276 18.9723 108.456 20.7834L107.832 21.2261ZM111.054 11.2047C110.95 11.2852 110.534 11.2852 110.43 11.3657H110.534L110.43 12.3718L111.366 15.1891C111.574 15.1891 111.989 15.5513 111.989 15.5513C112.821 15.4708 113.548 15.5111 114.38 15.4708H121.135C124.773 15.4708 128.515 14.9879 131.321 14.9879L135.166 12.8146L132.776 11.8084C131.113 11.3254 127.787 11.2449 126.852 11.2449L111.054 11.2047ZM107.312 4.8457L108.456 8.5484L109.703 8.87038C111.054 8.74964 112.405 8.74964 113.86 8.66914C117.913 8.46791 122.071 8.5484 126.124 8.38742C129.45 8.26668 132.88 7.98495 136.206 7.98495C136.517 7.98495 136.829 7.98495 137.141 7.98495L138.18 7.58248L140.051 5.61039C139.116 4.36274 139.324 4.04077 138.804 4.04077L136.102 4.00052C126.436 4.04077 116.25 4.48348 107 4.72496L107.312 4.8457Z" fill="#D50223"/>
<path d="M46.2557 40.0415L35.1194 8.16649L28.6368 10.3822C26.0023 19.6747 23.3758 24.4459 20.7683 31.9658C19.9942 33.5942 18.6559 38.4613 17.8696 41.6826L19.1787 44.5305L20.1545 41.656L21.4931 41.1562L24.8787 35.9164C25.0893 35.6331 25.7255 34.713 26.2194 34.711L36.1435 34.5744L36.3554 34.6442C37.8512 38.0985 39.0601 40.424 40.4104 42.8196L41.332 43.8752L45.0767 45.131L46.2557 40.0415ZM33.5085 28.5824C33.438 28.5827 33.2968 28.5833 33.2263 28.5836C32.4501 28.5867 31.6046 28.8727 30.9695 28.8753C29.8406 28.8799 29.3435 28.1051 31.3029 24.0717L32.4984 23.0781L34.2152 28.862C34.2152 28.862 33.5077 28.3706 33.5085 28.5824Z" fill="#D50223"/>
<path d="M35.1732 27.3338C34.7245 18.1366 26.2182 9.12943 16.2609 9.61561C10.9412 9.87536 6.26615 12.1373 3.63269 17.011L8.20101 19.5672L11.0522 19.1569L10.9906 19.2955L11.0588 19.2921C11.3525 25.3109 11.6065 34.721 12.3743 40.6488C12.206 41.4027 11.5119 42.589 11.7847 42.5757C16.0208 43.928 16.2485 44.3914 21.1722 44.4221C30.4112 43.2253 35.622 36.5311 35.1732 27.3338ZM27.8306 28.1669C28.2332 36.4173 20.1866 38.2338 19.0272 38.2904L18.2056 17.2485L18.1891 16.9103C23.7079 17.9288 27.5733 22.892 27.8306 28.1669Z" fill="white"/>
<path fill-rule="evenodd" clip-rule="evenodd" d="M36.5451 29.6739L27.1438 31.0397L25.3482 35.1221L20.3602 33.0358C20.3602 33.0358 18.6489 36.7778 18.1817 38.9106C17.6649 41.2702 17.5596 45.0645 17.5596 45.0645L19.0522 48.3847L20.334 45.848L25.7168 35.3304L36.7689 34.6938L36.5451 29.6739Z" fill="#D50223"/>
</svg>
